<?xml version="1.0" encoding="UTF-8"?>
<svg id="a" data-name="Layer 1" xmlns="http://www.w3.org/2000/svg" width="172" height="174" viewBox="0 0 172 174">
  <path d="M94.424,51.189c.586,.213,1.053,.387,1.523,.553,1.294,.455,1.826,1.427,1.967,2.737,.525,4.883-1.376,8.661-5.201,11.582-1.972,1.506-3.969,2.981-5.895,4.543-.79,.64-1.488,1.423-2.102,2.237-.27,.358-.282,.951-.308,1.443-.022,.413,.613,.741,.962,.524,.36-.224,.704-.482,1.022-.762,1.132-.993,2.54-1.497,3.925-1.835,1.81-.443,3.562,.162,5.134,1.119,.299,.182,.59,.732,.543,1.065-.257,1.844-.519,3.586-1.871,5.182-1.587,1.873-3.211,3.463-5.499,4.42-2.113,.883-3.187,2.743-4.014,4.787-1.726,4.262-2.16,8.609-.966,13.076,.197,.737,.473,1.456,.759,2.164,.802,1.983,1.63,3.955,2.441,5.934,.097,.237,.185,.484,.228,.735,.422,2.447,1.024,4.847,1.718,7.234,.375,1.288,.426,2.649,.438,4.036,.018,2.018,.3,4.093,1.154,6.011,.106,.239,.01,.707-.172,.906-.33,.362-.802,.211-1.171-.02-.792-.494-1.113-1.32-1.235-2.169-.541-3.766-2.223-7.19-3.187-10.826-.066-.248-.069-.568-.229-.728-1.365-1.366-1.307-3.268-1.913-4.919-.882-2.406-1.854-4.779-2.786-7.166-.28-.716-.553-1.435-.895-2.325-1.249-.383-2.032-1.389-2.723-2.641-.861-1.56-1.939-3.027-3.088-4.395-1.485-1.767-3.523-2.355-5.786-2.125-1.192,.121-2.373,.458-3.563,.476-2.826,.043-5.221-.858-6.63-3.533-.881-1.674-.341-3.531,1.363-4.341,.757-.36,1.628-.49,2.457-.684,1.747-.41,2.329-1.793,1.221-3.217-.564-.725-1.331-1.341-2.116-1.83-.865-.538-1.831-.942-2.797-1.282-1.775-.627-3.549-1.326-5.383-1.704-3.444-.71-5.209-3.096-6.402-6.061-.573-1.422-.862-2.943-.565-4.531,.509-2.725,2.185-4.235,4.94-4.242,1.023-.003,2.048,.143,3.069,.247,.509,.052,1.012,.227,1.519,.235,2.181,.032,3.467-1.093,2.48-3.415-.637-1.498-1.635-2.612-3.03-3.363-1.658-.893-3.336-1.756-5.046-2.544-1.43-.659-2.703-1.426-3.548-2.832-.339-.564-.918-1.005-1.443-1.433-1.781-1.454-2.608-3.343-2.659-5.61-.051-2.272,1.249-3.945,3.497-4.366,1.006-.189,2.042-.273,3.067-.294,1.282-.027,2.042-.732,2.634-1.751,.769-1.324,.865-2.777,.723-4.239-.165-1.702-.379-3.404-.686-5.086-.3-1.649-.084-3.231,.266-4.834,.292-1.336,.981-2.362,2.121-3.086,1.836-1.166,3.713-2.027,6.027-1.645,1.772,.293,3.017,1.118,3.805,2.681,.308,.61,.502,1.279,.814,1.886,.626,1.217,1.229,2.455,1.965,3.605,1.25,1.953,2.723,2.408,4.814,1.461,1.869-.847,3.747-1.714,5.491-2.783,1.511-.927,3.027-1.552,4.809-1.508,1.111,.028,2.223-.008,3.335-.004,1.404,.004,2.454,.632,3.191,1.819,.226,.363,.499,.696,.742,1.049,.941,1.361,1.133,2.836,.661,4.408-.646,2.149-1.602,4.142-2.875,5.999-.524,.765-.942,1.627-1.264,2.498-.319,.864,.187,1.54,1.151,1.537,1.448-.004,2.917-.005,4.338-.24,2.28-.377,3.373-.04,4.508,1.891,.381,.649,.672,1.414,.765,2.155,.203,1.612,.311,3.242,.337,4.867,.011,.656-.284,1.321-.459,1.976-.105,.394-.249,.777-.417,1.294Zm-13.669,48.177c.077-.977,.196-1.65,.17-2.317-.113-2.884,.613-5.608,1.563-8.279,1.065-2.995,2.742-5.504,5.835-6.774,.236-.097,.441-.267,.675-.37,2.19-.964,3.067-3.125,4.421-4.85,.099-.126,.121-.318,.162-.483,.305-1.215-.263-2.047-1.516-2.131-1.592-.107-3.05,.309-4.347,1.257-.62,.453-1.207,.97-1.877,1.334-1.023,.556-1.99,.328-2.784-.526-1.119-1.203-1.224-3.07-.086-4.475,1.238-1.529,2.69-2.819,4.372-3.917,2.859-1.867,5.505-3.958,7.38-6.979,1.184-1.908,1.382-3.815,1.233-5.879-.082-1.135-.591-1.609-1.802-1.811-.917-.153-1.848-.228-2.763-.336-.284-.859,.255-1.355,.591-1.933,.425-.734,1.109-1.485,1.136-2.249,.069-1.951-.147-3.914-.292-5.869-.024-.32-.235-.642-.412-.932-.486-.795-1.138-1.193-2.14-1.036-1.431,.224-2.878,.441-4.321,.46-.909,.012-1.873-.217-2.722-.562-1.199-.486-1.652-1.495-1.194-2.741,.468-1.272,1.157-2.465,1.774-3.681,.772-1.522,1.589-3.021,2.349-4.549,.923-1.856,.267-3.484-.791-5.046-.41-.605-.955-.979-1.679-1.053-2.513-.257-4.922-.093-7.178,1.287-1.893,1.157-3.876,2.179-5.875,3.147-2.495,1.208-4.983,.587-6.557-1.683-.92-1.326-1.627-2.803-2.391-4.233-.442-.828-.775-1.715-1.218-2.543-.385-.72-1.027-1.095-1.857-1.207-3.611-.489-6.426,1.806-6.562,5.402-.026,.68,.018,1.369,.104,2.045,.174,1.358,.449,2.704,.589,4.065,.122,1.188,.171,2.39,.15,3.584-.026,1.516-.723,2.825-1.612,3.986-.814,1.062-1.973,1.554-3.347,1.639-1.182,.073-2.398,.187-3.518,.541-1.284,.406-1.688,1.261-1.585,2.601,.138,1.798,.833,3.337,2.307,4.41,2.537,1.847,4.851,4.033,7.85,5.193,.794,.307,1.554,.725,2.289,1.161,2.106,1.248,3.366,3.118,3.882,5.495,.299,1.376-.113,2.537-1.157,3.471-1.084,.969-2.27,1.391-3.774,1.03-1.403-.336-2.861-.45-4.299-.634-1.412-.18-2.29,.611-2.805,1.781-.264,.601-.349,1.325-.343,1.992,.016,2.054,.909,3.795,2.095,5.414,.739,1.009,1.702,1.659,2.911,1.976,1.897,.497,3.806,.963,5.679,1.541,2.413,.745,4.451,2.149,6.269,3.877,.651,.619,.997,1.378,.851,2.312-.119,.76-.154,1.539-.335,2.284-.261,1.077-.879,1.518-2.026,1.583-.595,.034-1.213-.044-1.784,.087-1.743,.4-2.227,1.999-1.019,3.3,.284,.306,.651,.56,1.023,.755,1.252,.656,2.571,.852,3.982,.596,1.091-.198,2.207-.406,3.306-.375,3.144,.088,5.823,1.159,7.671,3.895,.909,1.346,1.919,2.627,2.937,3.894,.576,.717,1.145,1.478,2.411,2.064Z"/>
  <path d="M61.028,154.3c1.982-3.025,2.809-5.918,3.917-8.684,.308-.77,.567-1.582,1.017-2.264,.197-.298,.84-.485,1.237-.426,.681,.101,.959,.717,.851,1.358-.098,.579-.358,1.134-.573,1.689-.95,2.459-1.922,4.91-2.858,7.375-.246,.649-.393,1.336-.647,2.222,2.592,.505,4.862,.161,7.141-.343,.675-1.378,.775-2.774,.532-3.996-.608-3.05,.569-5.893,.716-8.845,.039-.786,.784-1.24,1.58-1.125,1.769,.256,3.533,.567,5.273,.97,.309,.071,.719,.73,.668,1.051-.054,.336-.591,.813-.948,.841-1.293,.101-2.598,.04-3.757,.04-1.08,1.089-.914,2.076-.413,3.061,.243,.159,.426,.367,.635,.399,.825,.127,1.686,.103,2.48,.327,.503,.142,1.037,.537,1.325,.973,.296,.447-.421,1.118-1.386,1.282-1.048,.178-2.109,.284-3.017,.403-.864,.96-.753,1.921-.574,2.867,.176,.926,.799,1.51,1.721,1.575,2.389,.17,4.784,.347,7.177,.36,1.859,.01,2.48-.638,2.872-2.479,.1-.468,.173-.943,.285-1.408,.672-2.803,1.167-5.608,.831-8.525-.135-1.171,.809-1.825,1.868-1.392,.754,.309,1.516,.738,2.1,1.296,1.65,1.577,3.075,3.337,4.065,5.434,.817,1.731,1.89,3.276,3.965,4.249,.257-.7,.51-1.213,.632-1.756,.473-2.104,.882-4.222,1.359-6.325,.241-1.062,.604-2.125,1.664-2.633,.348-.167,.927-.053,1.31,.126,.227,.106,.455,.645,.377,.895-.318,1.023-.744,2.013-1.148,3.007-.963,2.366-1.363,5.712-.96,8.591,3.135,.452,6.32,.407,9.614,.236,1.641-3.771,2.3-7.61,2.449-11.48-.791-1.015-1.781-.731-2.722-.743-1.428-.018-2.862-.043-4.278-.202-.31-.035-.787-.656-.766-.981,.02-.319,.558-.844,.898-.868,4.417-.315,8.84-.564,13.262-.806,.342-.019,.75,.052,1.024,.236,.263,.176,.527,.546,.542,.844,.016,.306-.202,.827-.434,.905-.778,.261-1.601,.438-2.419,.517-1.667,.161-2.664,1.076-2.961,2.654-.595,3.157-1.098,6.331-1.677,9.719,.799,.203,1.45,.537,2.08,.5,2.506-.146,5.01-.375,7.507-.636,1.648-.172,3.285-.45,4.813-.664,.58-.986-.025-1.489-.463-2.021-.834-1.012-1.803-1.934-2.507-3.027-.925-1.437-.778-2.33,.258-3.605,1.081-1.331,2.432-2.345,4.024-2.928,.741-.272,1.626-.228,2.441-.197,.766,.03,1.423,.726,1.136,1.057-.277,.318-.717,.635-1.117,.679-1.483,.166-2.762,.781-3.938,1.629-1.001,.721-1.157,1.817-.389,2.826,.578,.76,1.262,1.441,1.903,2.154,2.193,2.441,3.884,5.176,4.735,8.367,.211,.791,.346,1.665,.231,2.459-.095,.655-.472,1.402-.962,1.844-2.504,2.26-7.085,1.36-8.592-1.665-.151-.303,.085-.798,.134-1.149,1.108-.121,1.454,.625,1.971,1.065,.902,.767,1.923,.914,3.033,.714,1.549-.279,2.237-1.322,1.891-2.873-.078-.349-.194-.696-.343-1.021-.197-.43-.442-.838-.697-1.312-1.421-.518-2.844-.342-4.242-.052-4.601,.956-9.295,.813-13.94,1.236-.353,.032-.747,.054-1.067-.067-2.891-1.09-5.943-.502-8.899-.886-1.525-.198-2.827,.2-3.875,1.396-.297,.339-.776,.518-1.311,.859-1.692-1.439-3.551-2.067-5.844-1.891-3.594,.276-3.607,.106-6.241,1.565-1.204-1.239-2.71-1.373-4.488-1.183-2.487,.265-5.024,.025-7.538,.081-3.232,.072-6.463,.223-9.694,.341-.12,.004-.255-.021-.356,.027-2.999,1.401-6.102,.452-9.165,.421-1.788-.018-3.577-.003-5.344-.003-.208,1.107,.494,1.094,1.011,1.162,.946,.125,1.911,.124,2.851,.278,.275,.045,.703,.45,.691,.671-.022,.413-.272,.839-.512,1.203-.108,.164-.414,.24-.642,.272-.473,.067-.955,.119-1.431,.107-3.588-.092-7.175-.215-10.763-.3-1.566-.037-2.497-.866-2.748-2.325-.384-2.236-.769-4.489-.891-6.749-.154-2.863-.098-5.742-.023-8.611,.037-1.417,.149-1.414,1.496-3.178,1.844,0,3.743-.023,5.641,.01,.831,.015,1.689,.037,2.482,.25,.751,.202,1.188,.778,.805,1.709-1.029,.759-2.27,.391-3.431,.445-4.432,.207-4.973,.779-4.684,5.158,.024,.358,.037,.72,.098,1.073,.167,.964,.67,1.445,1.713,1.484,1.196,.044,2.395-.02,3.593-.024,.836-.003,1.689-.076,2.502,.066,.337,.059,.827,.604,.82,.917-.009,.373-.421,.972-.76,1.055-.916,.222-1.887,.207-2.832,.314-1.182,.134-2.376,.227-3.53,.491-.301,.069-.66,.715-.649,1.086,.011,.391,.351,.893,.696,1.12,.367,.242,.911,.306,1.375,.297,4.43-.088,8.86-.196,13.288-.34,.428-.014,.848-.306,1.288-.475,.297-1.384-.23-2.489-.702-3.56-1.063-2.411-2.211-4.784-3.319-7.174-.352-.76-.772-1.504-.994-2.302-.103-.369,.065-1.031,.345-1.23,.286-.204,.996-.177,1.284,.049,1.346,1.06,2.15,2.498,2.737,4.114,.817,2.247,1.745,4.457,2.703,6.649,.266,.609,.802,1.099,1.503,2.025Zm27.528,.331c2.025,.921,3.807,.745,5.57,.43,.487-.087,.911-.526,1.34-.788-2.514-5.345-3.492-6.798-5.521-8.117-.685,2.779-1.843,5.385-1.389,8.476Z"/>
  <path d="M80.756,99.366c-1.266-.585-1.836-1.347-2.411-2.064-1.018-1.267-2.028-2.548-2.937-3.894-1.848-2.735-4.527-3.807-7.671-3.895-1.099-.031-2.216,.177-3.306,.375-1.411,.256-2.729,.061-3.982-.596-.372-.195-.739-.449-1.023-.755-1.209-1.302-.724-2.9,1.019-3.3,.571-.131,1.189-.054,1.784-.087,1.147-.065,1.765-.506,2.026-1.583,.181-.744,.216-1.523,.335-2.284,.146-.934-.199-1.693-.851-2.312-1.818-1.728-3.855-3.132-6.269-3.877-1.873-.578-3.782-1.043-5.679-1.541-1.209-.317-2.172-.967-2.911-1.976-1.186-1.619-2.079-3.36-2.095-5.414-.005-.667,.079-1.391,.343-1.992,.515-1.171,1.393-1.962,2.805-1.781,1.437,.183,2.896,.297,4.299,.634,1.504,.361,2.69-.061,3.774-1.03,1.044-.934,1.456-2.095,1.157-3.471-.516-2.376-1.776-4.246-3.882-5.495-.735-.436-1.494-.854-2.289-1.161-3-1.159-5.313-3.346-7.85-5.193-1.473-1.073-2.168-2.612-2.307-4.41-.103-1.34,.301-2.195,1.585-2.601,1.12-.354,2.336-.468,3.518-.541,1.374-.085,2.533-.577,3.347-1.639,.889-1.161,1.586-2.47,1.612-3.986,.02-1.194-.029-2.396-.15-3.584-.139-1.361-.415-2.707-.589-4.065-.086-.675-.13-1.365-.104-2.045,.136-3.596,2.952-5.891,6.562-5.402,.83,.112,1.472,.487,1.857,1.207,.443,.828,.775,1.715,1.218,2.543,.764,1.43,1.471,2.907,2.391,4.233,1.574,2.27,4.063,2.892,6.557,1.683,1.998-.968,3.982-1.99,5.875-3.147,2.257-1.38,4.665-1.544,7.178-1.287,.723,.074,1.268,.448,1.679,1.053,1.058,1.562,1.714,3.19,.791,5.046-.76,1.528-1.577,3.027-2.349,4.549-.616,1.216-1.306,2.408-1.774,3.681-.458,1.246-.005,2.255,1.194,2.741,.849,.344,1.813,.574,2.722,.562,1.443-.019,2.89-.236,4.321-.46,1.002-.157,1.654,.241,2.14,1.036,.177,.289,.388,.612,.412,.932,.145,1.955,.361,3.918,.292,5.869-.027,.763-.711,1.515-1.136,2.249-.335,.578-.875,1.074-.591,1.933,.915,.108,1.846,.183,2.763,.336,1.211,.202,1.72,.677,1.802,1.811,.149,2.064-.049,3.971-1.233,5.879-1.874,3.022-4.521,5.112-7.38,6.979-1.681,1.098-3.133,2.388-4.372,3.917-1.138,1.405-1.033,3.271,.086,4.475,.794,.854,1.76,1.082,2.784,.526,.67-.364,1.256-.881,1.877-1.334,1.297-.948,2.755-1.364,4.347-1.257,1.253,.084,1.821,.915,1.516,2.131-.041,.165-.063,.357-.162,.483-1.354,1.724-2.231,3.886-4.421,4.85-.234,.103-.439,.273-.675,.37-3.094,1.269-4.77,3.778-5.835,6.774-.95,2.671-1.676,5.396-1.563,8.279,.026,.667-.094,1.34-.17,2.317Z" fill="#fff"/>
  <path d="M88.556,154.631c-.454-3.09,.704-5.697,1.389-8.476,2.028,1.32,3.006,2.772,5.521,8.117-.429,.263-.853,.701-1.34,.788-1.763,.315-3.545,.491-5.57-.43Z" fill="#fff"/>
</svg>