<?xml version="1.0" encoding="UTF-8"?>
<svg id="a" data-name="Layer 1" xmlns="http://www.w3.org/2000/svg" width="172" height="174" viewBox="0 0 172 174">
  <path d="M116.588,68.024c-.893,.916-1.566,1.728-2.363,2.391-.871,.726-1.786,.646-2.607-.061-1.132-.974-1.821-2.189-2.067-3.678-.153-.925,.148-1.617,.789-2.254,.669-.666,1.583-.949,1.854-.487,.379,.646-.074,1.068-.39,1.578-.223,.36-.352,.902-.262,1.304,.157,.697,.506,1.376,1.385,1.419,.591,.028,1.207-.762,1.117-1.579-.128-1.172-.38-2.331-.58-3.502,.548-1.197,1.632-.659,2.516-.794,.777-.119,1.762,.063,1.954-1.111q-2.341-1.368-3.769-3.609c-3.008-.963-6.182,1.205-9.653-.106,.628-.39,.97-.727,1.372-.832,3.002-.786,6.021-1.505,9.023-2.293,.998-.262,1.003,.889,1.918,1.1,.351-.642,.848-1.304,1.088-2.049,.365-1.136,.636-2.317,.797-3.499,.546-4.001,2.084-7.597,4.477-10.942-.222-.826-.477-1.608-.639-2.408-.406-2,1.487-4.474,3.532-4.543,1.067-.036,1.872,.69,2.2,1.592,.979,2.691,1.445,3.863-.719,5.869-1.957,1.814-2.758,4.231-3.337,6.643-.866,3.608-1.769,7.191-2.836,10.748-.68,2.267-.836,4.692-1.205,7.05-.11,.706,.098,1.59-.257,2.104-1.174,1.697-.658,3.437-.481,5.213,.532,5.361,1.026,10.727,1.497,16.094,.083,.948,.112,1.936-.059,2.864-.331,1.796-.458,3.566,.037,5.34,.325,1.164-.033,2.101-.828,2.952-1.425,1.526-3.021,2.572-5.195,2.912-4.486,.702-8.929,1.676-13.398,2.489-1.291,.235-2.637,.187-3.915,.468-4.087,.899-8.162,1.853-12.223,2.86-2.658,.659-5.28,1.459-7.927,2.164-.553,.147-1.144,.151-1.967,.251-.13-.925-.24-1.703-.359-2.547-.304-.072-.658-.257-.98-.213-1.186,.159-2.358,.422-3.543,.595-2.877,.419-5.736,.392-8.533-.511-2.309-.746-3.899-2.158-4.637-4.586-1.05-3.456-1.947-6.914-1.831-10.566,.038-1.197-.008-2.397-.049-3.595-.155-4.573,1.603-8.412,4.576-11.749,1.567-1.759,3.646-2.913,5.906-3.199,5.416-.685,10.444,.179,14.694,4.124,3.087,2.866,4.916,8.253,2.58,13.146-.516,1.081-1.078,2.141-1.608,3.216-1.058,2.149-2.56,3.725-5.047,4.177-.688,.125-1.319,.536-1.989,.785-3.119,1.159-5.544-.275-6.018-3.506-.172-1.175-.379-2.355-.705-3.494-.59-2.06,.071-3.772,1.334-5.328,.175-.216,.628-.207,1.216-.38-.438,1.243-.936,2.261-1.13,3.334-.143,.795,.067,1.669,.204,2.494,.076,.461,.283,.916,.505,1.333,.165,.31,.417,.594,.688,.82,.365,.304,.759,.598,1.188,.79,.528,.237,1.105,.364,1.879,.607,.233-1.343-1.501-1.74-1.066-2.883,.171-.091,.394-.312,.538-.269,.452,.134,.862,.405,1.311,.556,2.246,.758,4.668-.494,5.365-2.77,.21-.687,.449-1.38,.534-2.088,.83-6.925-3.351-12.352-11.101-12.08-1.748,.061-3.16,.885-4.415,2.133-3.959,3.938-5.192,8.786-4.805,14.158,.208,2.892,.918,5.662,2.52,8.161,2.015,3.145,4.784,4.494,8.531,4.077,7.869-.876,13.677-4.787,17.499-11.67,.514-.926,.923-1.979,1.089-3.02,.528-3.315,.78-6.634,.399-10.017-.326-2.889-1.499-5.275-3.412-7.341-3.317-3.581-7.398-6.09-11.839-7.988-3.291-1.407-6.78-1.439-10.258-.813-2.08,.374-3.712,1.566-5.113,3.132-1.593,1.781-3.388,3.396-4.854,5.272-2.868,3.67-6.338,6.876-8.571,11.044-.508,.948-1.082,1.876-1.737,2.728-3.152,4.095-4.296,8.748-3.967,13.834,.07,1.077,.04,2.164,.177,3.23,.121,.942,.349,1.882,.643,2.787,.293,.902,.824,.997,1.959,.491,.213-.095,.428-.187,.333-.145,2.541,.863,4.837,1.643,7.24,2.458-1.629,.948-1.76,.995-3.325,.784-1.04-.14-2.071-.343-3.547-.593,.355,.755,.426,1.279,.715,1.464,2.674,1.708,5.494,2.935,8.975,2.046,.088,.623,.334,1.156,.166,1.456-.265,.472-.755,.907-1.252,1.128-.39,.173-.935,0-1.411-.022-3.096-.15-6.005-1.278-8.335-3.05-2.885-2.193-4.787-5.361-5.046-9.178-.146-2.151-.166-4.314-.141-6.471,.04-3.409,.931-6.63,2.366-9.708,1.671-3.584,3.33-7.174,5.039-10.741,.41-.856,.879-1.736,1.516-2.424,4.455-4.815,9.559-8.85,15.811-10.929,4.306-1.432,8.903-1.951,13.481-1.388,2.568,.315,4.83,1.697,6.602,3.441,3.148,3.099,6.276,6.319,8.253,10.342,2.75,5.599,3.186,11.445,1.313,17.44-.851,2.724-1.618,5.474-2.495,8.459,.718,.112,1.258,.284,1.79,.264,4.954-.18,9.256-2.423,13.482-4.629,2.857-1.491,3.381-4.466,3.115-7.499-.167-1.904-.45-3.797-.656-5.698-.348-3.213-.619-6.436-1.034-9.64-.291-2.247-.757-4.473-1.171-6.703-.064-.344-.209-.715-.428-.983-1.883-2.3-3.305-4.976-5.927-6.669-1.49-.962-2.747-2.293-4.079-3.491-1.555-1.399-2.449-3.198-3.198-5.131-.819-2.115-1.765-4.192-2.809-6.207-.937-1.807-2.069-3.444-4.022-4.454-1.452-.751-1.624-2.121-.48-3.287,.982-1,2.189-1.85,3.436-2.499,1.137-.592,2.61,.005,3.524,1.091,.78,.927,.848,1.977,.356,3.027-.404,.862-.941,1.662-1.469,2.577,.197,1.923,1.13,3.592,2.342,5.084,2.414,2.974,4.862,5.925,7.396,8.797,.879,.997,1.535,2.057,2.21,3.19,1.325,2.225,2.716,4.527,5.525,5.704-.937,3.078,.365,6.025,.622,9.071,.393,4.65,.874,9.3,1.534,13.918,.29,2.027,.489,4.019,.295,6.044-.067,.704-.256,1.403-.451,2.087-.597,2.088-1.79,3.495-3.992,4.2-2.111,.676-4.267,1.408-6.351,2.908,1.426,.707,2.578,.449,3.717,.217,3.167-.645,6.336-1.28,9.493-1.975,1.401-.308,2.799-.678,4.152-1.151,1.744-.609,2.505-1.701,2.338-3.568-.204-2.276-.301-4.519,.095-6.79,.138-.794-.138-1.66-.219-2.493-.299-3.095-.594-6.191-.893-9.286-.126-1.311-.13-2.65-.424-3.922-.245-1.062-.518-2.059-.315-3.168,.07-.383-.237-.835-.41-1.376Zm-28.316,34.312c-.813,.533-1.732,.88-1.474,2.159,1.891-.009,3.574-.092,5.439-1.429-1.637-.302-2.84-.523-3.965-.73Zm.397-66.553c-.638,.138-1.219,.242-1.787,.393-.706,.187-1.343,.506-1.53,1.291-.135,.568,.912,1.182,1.893,1.173,.893-.008,1.647-.325,2.09-1.086,.202-.347,.243-.878,.147-1.274-.054-.222-.537-.34-.813-.497Zm-41.537,41.127q2.754-2.105,3.181-4.075-2.194,1.424-3.181,4.075Zm51.369-20.395c.236-.68,.329-.803,.302-.888-.55-1.704-2.533-2.029-3.374-3.469-.031-.054-.382,.079-.839,.183,1.278,1.364,2.465,2.63,3.912,4.174Zm28.344-20.454c.05-.899-.941-1.806-1.848-1.553-.33,.092-.73,.628-.744,.977-.016,.379,.295,.986,.615,1.114,.471,.189,1.081,.081,1.621,.012,.14-.018,.239-.358,.356-.551ZM60.476,101.176c-.341,1.676,.255,2.594,2.283,3.129-1.009-1.383-1.646-2.256-2.283-3.129Z"/>
  <path d="M83.316,130.214c.813-.463,1.721-.979,2.617-1.49,1.893,.982,2.912,2.607,4.146,4.062,1.198,1.412,1.434,3.571,3.497,4.553,2.099-3.509,.724-7.625,2.047-10.917,2.154-.415,3.994-.997,5.856-1.076,3.201-.137,6.416,.03,9.624,.101,.338,.008,.773,.14,.983,.376,.287,.322,.511,.789,.546,1.212,.021,.25-.323,.671-.595,.775-.547,.21-1.167,.218-1.739,.376-1.525,.42-2.022,.938-2.093,2.484-.126,2.75-.163,5.504-.225,8.257-.033,1.474-.526,2.338-1.247,2.095-1.063-.359-.883-1.291-.862-2.104,.079-2.993,.191-5.986,.269-8.979,.012-.471-.089-.945-.161-1.638-.686-.294-1.402-.791-2.167-.886-1.296-.161-2.631-.159-3.937-.061-2.212,.166-2.714,.669-3.001,2.789-.145,1.067-.191,2.147-.291,3.22-.112,1.192-.123,2.41-.389,3.567-.207,.898-.613,1.812-1.154,2.557-.876,1.207-1.971,1.225-3.004,.061-.785-.885-1.44-1.901-2.057-2.917-.868-1.428-1.714-2.855-2.934-3.881-.973,.16-1.02,.781-.972,1.368,.176,2.147,.415,4.289,.592,6.435,.058,.705,.073,1.431-.036,2.125-.042,.267-.453,.604-.748,.667-.289,.061-.802-.09-.938-.315-.361-.6-.714-1.27-.809-1.949-.182-1.3-.165-2.626-.262-3.939-.159-2.141-.343-4.279-.558-6.925Z"/>
  <path d="M40.741,134.474c-.188,1.891,.551,3.509,1.094,5.312,2.668,.427,5.216,.681,7.768-.33,1.202-.476,1.835-.289,2.189,.376,.401,.752-.191,1.823-1.393,2.056-1.513,.293-3.075,.45-4.617,.456-3.386,.014-3.973,.068-4.486,4.027-.264,2.04-.156,2.599,.807,5.065,.604-.138,1.33-.143,1.869-.463,.812-.483,1.444-1.263,2.245-1.772,.575-.366,1.292-.526,1.965-.707,.17-.046,.477,.13,.603,.294,.121,.158,.204,.541,.109,.642-1.958,2.077-3.788,4.352-6.886,4.793-1.284,.183-2.099-.316-2.338-1.602-.415-2.23-.82-4.439-.405-6.76,.574-3.211,.423-6.435-.503-9.595-.439-1.499-.748-3.006-.221-4.425,1.784-.246,3.403-.463,5.02-.695,1.302-.187,2.599-.417,3.904-.576,.714-.087,1.47,.441,1.284,.875-.212,.494-.603,1.06-1.062,1.261-.631,.276-1.405,.206-2.107,.344-1.62,.319-3.306,.444-4.839,1.425Z"/>
  <path d="M66.843,132.223c2.803,.634,5.022,.381,7.053-.807,1.023-.599,1.948-1.364,2.943-2.014,.148-.097,.564-.054,.639,.063,.171,.265,.319,.638,.266,.928-.06,.324-.321,.632-.551,.899-1.276,1.486-2.812,2.574-4.741,3.055-1.038,.259-2.069,.544-3.36,.885,0,.52-.111,1.092,.027,1.596,.181,.662,.853,.899,1.444,.798,1.758-.301,3.508-.672,5.242-1.092,.807-.195,1.557-.617,2.361-.835,.439-.119,.981-.148,1.392,.006,.392,.147,.888,.551,.944,.905,.05,.315-.397,.988-.697,1.035-2.714,.425-5.155,1.954-7.967,1.953-.236,0-.472,.07-.709,.1-.956,.123-2.016,.175-2.244,1.372-.302,1.586-.176,3.178,1.174,4.262,1.534,1.231,4.666,.516,5.687-1.228,.348-.595,.502-1.303,.731-1.924,.936-.126,1.063,.488,1.15,1.061,.173,1.134-.184,2.128-.948,2.968-.913,1.003-2.012,1.649-3.391,1.82-4.505,.56-6.623-1.138-6.701-5.657-.056-3.203,.151-6.41,.255-10.151Z"/>
  <path d="M57.761,144.357c.34-.575,.764-1.117,1.006-1.731,1.267-3.221,2.46-6.47,3.743-9.684,.299-.748,.797-1.436,1.308-2.067,.146-.18,.724-.186,.984-.048,.239,.127,.38,.544,.442,.857,.039,.198-.121,.454-.233,.662-2.05,3.812-3.145,7.978-4.519,12.044-.414,1.225-.983,2.442-1.71,3.506-.874,1.276-2.543,1.037-3.146-.379-.323-.758-.541-1.588-.649-2.406-.472-3.549-.914-7.104-1.298-10.664-.073-.676,.135-1.392,.285-2.074,.035-.159,.355-.336,.558-.355,.198-.018,.489,.101,.604,.259,.202,.278,.383,.619,.431,.954,.266,1.888,.479,3.783,.73,5.673,.233,1.76,.49,3.517,.736,5.275,.243,.059,.487,.118,.73,.177Z"/>
  <path d="M121.934,126.096c-.383,.406-.743,.86-1.174,1.232-1.297,1.119-1.371,2.431-.641,3.86,.97,1.898,1.974,3.778,2.966,5.67-.757,1.695-2.025,2.401-3.702,2.466-1.93,.076-3.706-.251-4.974-1.795,.45-1.007,1.061-.752,1.622-.648,1.273,.238,2.553,.589,3.685-.251,.421-1.154-.301-1.912-.659-2.763-.46-1.095-1.067-2.154-1.35-3.293-.561-2.256,.469-4.327,2.489-5.405,.442-.236,.91-.005,1.737,.926Z"/>
  <path d="M88.272,102.336c1.124,.207,2.327,.429,3.965,.73-1.865,1.337-3.548,1.42-5.439,1.429-.258-1.279,.66-1.626,1.474-2.159Z" fill="#fff"/>
  <path d="M88.668,35.784c.276,.157,.759,.275,.813,.497,.096,.396,.056,.927-.147,1.274-.444,.761-1.198,1.078-2.09,1.086-.981,.008-2.028-.605-1.893-1.173,.187-.786,.825-1.104,1.53-1.291,.568-.15,1.148-.255,1.787-.393Z" fill="#fff"/>
  <path d="M47.132,76.911q.987-2.651,3.181-4.075-.426,1.97-3.181,4.075Z" fill="#fff"/>
  <path d="M98.5,56.516c-1.447-1.544-2.633-2.81-3.912-4.174,.457-.104,.808-.237,.839-.183,.841,1.44,2.824,1.766,3.374,3.469,.027,.085-.065,.208-.302,.888Z" fill="#fff"/>
  <path d="M126.844,36.061c-.117,.192-.216,.533-.356,.55-.54,.068-1.151,.177-1.621-.012-.32-.129-.631-.735-.615-1.114,.014-.348,.414-.885,.744-.977,.906-.253,1.898,.654,1.848,1.553Z" fill="#fff"/>
  <path d="M60.476,101.176c.637,.873,1.274,1.746,2.283,3.129-2.028-.535-2.624-1.452-2.283-3.129Z" fill="#fff"/>
</svg>