<?xml version="1.0" encoding="UTF-8"?>
<svg id="a" data-name="Layer 1" xmlns="http://www.w3.org/2000/svg" width="172" height="174" viewBox="0 0 172 174">
  <path d="M111.325,93.321c2.538-2.341,5.158-4.402,7.422-6.888,1.529-1.679,3.201-3.227,4.813-4.829,.594-.59,1.262-1.117,1.793-1.758,1.303-1.572,2.597-3.133,4.47-4.083,.136-.069,.135-.41,.264-.853-.537-.157-1.066-.413-1.611-.453-2.641-.195-5.27-.181-7.829,.665-.562,.186-1.162,.405-1.73,.372-.398-.023-.934-.366-1.111-.716-.172-.34-.142-1.082,.102-1.287,2.492-2.09,3.747-5.237,6.398-7.236,1.287-.97,2.216-2.515,3.063-3.944,.987-1.665,2.015-3.252,3.469-4.548,.233-.208,.309-.592,.548-1.078-1.824-.283-3.426,.194-5.036,.432-2.365,.349-4.713,.886-7.09,1.063-1.908,.142-3.521,.755-4.854,2.032-1.989,1.904-3.991,3.813-5.809,5.876-3.65,4.141-7.414,8.139-11.623,11.739-3.913,3.347-7.606,6.955-11.347,10.5-.86,.815-1.562,1.811-2.263,2.777-.842,1.16-1.749,2.23-2.907,3.017-1.139-.617-1.152-1.63-1.223-2.562-.155-2.03-.261-4.065-.338-6.1-.064-1.7-.493-3.268-1.272-4.618-.919-.317-1.313,.203-1.689,.64-.78,.909-1.513,1.86-2.263,2.794-1.733,2.158-3.598,4.114-6.098,5.479-1.77,.966-3.295,2.347-4.626,3.942-1.999,2.395-4.255,4.519-6.829,6.342-2.044,1.447-3.84,3.24-5.775,4.846-.353,.293-.827,.469-1.274,.605-.163,.049-.467-.126-.6-.288-.131-.16-.244-.495-.162-.641,.283-.51,.58-1.053,1.005-1.436,1.334-1.203,2.734-2.335,4.099-3.504,.727-.623,1.436-1.268,2.154-1.902,1.396-1.234,2.069-2.793,2.536-4.606,1.46-5.677,3.099-11.309,4.696-16.951,.311-1.097,.757-1.194,2.325-.535-2.005,4.928-3.13,10.112-4.764,16.043,1.372-.904,1.984-1.232,2.508-1.666,1.568-1.299,3.102-2.64,4.65-3.965,.363-.311,.679-.794,1.096-.906,3.025-.814,4.631-3.325,6.432-5.494,2.387-2.874,4.956-5.524,7.809-7.924,.986-.829,2.056-1.635,2.575-2.952-.665-1.549-1.894-2.535-3.143-3.426-3.551-2.533-6.674-5.443-8.785-9.32-.619-1.137-1.573-1.701-2.843-1.953-1.641-.326-3.263-.775-4.865-1.264-.653-.199-1.385-.533-1.082-1.604,1.771-.527,3.455,.61,5.46,.457,.031-.569,.172-1.136,.072-1.657-.361-1.883-.816-3.748-1.212-5.625-1.127-5.34-.144-10.227,3.179-14.598,1.16-1.526,2.342-3.036,3.509-4.557,1.091-1.422,2.572-1.912,4.309-2.257,4.796-.953,11.908,3.259,13.35,8.214,.788,2.709,2.26,5.218,3.518,8.028,.836-.516,1.558-.879,2.185-1.366,1.888-1.469,3.828-2.889,5.581-4.508,2.198-2.029,4.226-4.242,6.34-6.364,.589-.591,1.176-1.198,1.846-1.687,.488-.356,1.126-.488,1.619,.075,.482,.552,.331,1.096-.153,1.566-1.886,1.831-3.747,3.689-5.681,5.468-1.231,1.132-2.554,2.169-3.874,3.2-1.41,1.102-2.952,2.051-4.035,3.697,.781,2.076,1.561,4.185,2.366,6.285,.765,1.995,1.555,3.981,2.357,6.03-.582,.628-1.012,1.202-1.549,1.648-.925,.769-1.744,1.573-2.402,2.622-.624,.994-1.59,1.777-2.423,2.636-2.751,2.838-5.522,5.658-8.257,8.512-.491,.512-.824,1.172-1.268,1.732-.29,.366-.59,.803-.988,.995-3.875,1.872-6.321,5.354-9.41,7.977-.016,2.089,.88,3.702,1.519,5.343,.654,1.68-.137,3.623,.963,5.151,1.405,.176,2.04-.829,2.796-1.518,4.517-4.113,8.959-8.311,13.51-12.386,3.401-3.046,6.491-6.37,9.536-9.764,2.391-2.665,4.775-5.377,7.779-7.429,.682-.466,1.221-1.144,1.809-1.741,2.352-2.393,4.697-4.794,7.045-7.191,.335-.343,.752-.636,.995-1.034,2.037-3.348,5.033-5.75,7.991-8.194,.37-.305,.733-.62,1.084-.945,3.414-3.161,3.432-3.201,3.706-7.702,1.25-.988,2.656-1.104,3.886-.076,1.106,.924,1.989,2.122,1.309,3.775-.134,.325-.137,.702-.216,1.052-.457,2.032-.756,2.375-2.925,2.093-1.382-.18-2.403,.297-3.241,1.135-3.378,3.379-7.397,6.072-10.249,10.036-1.522,2.116-3.637,3.801-5.415,5.744-.425,.464-.571,1.184-1.038,2.211,1.37-.232,2.291-.336,3.186-.547,3.847-.908,7.687-1.847,11.529-2.775,.233-.056,.464-.13,.7-.162,.824-.111,1.685-.338,2.342,.415,.411,.471-.002,1.381-1.099,2.367-.801,.719-1.658,1.375-2.469,2.082-1.896,1.654-3.78,3.289-4.952,5.619-.922,1.831-2.351,3.303-3.92,4.641-.81,.69-1.54,1.503-2.172,2.359-.308,.417-.307,1.062-.492,1.787,3.193,.407,6.128,.553,9.044-.166,.868,1.254,1.595,2.304,2.294,3.315-.683,1.434-1.911,2.03-3.093,2.537-1.605,.688-2.779,1.813-3.924,3.058-1.132,1.231-2.408,2.329-3.55,3.553-3.268,3.503-6.714,6.815-10.359,9.926-.621,.53-1.038,1.302-1.535,1.973-.704,.952-1.404,1.907-2.087,2.873-1.303,1.843-2.881,1.882-4.717,.697-.423-1.766-.86-3.59-1.347-5.619,2.394-1.62,4.914-2.686,7.954-.889Zm-38.511-60.09c.11-.158,.221-.317,.331-.475-.08,.185-.161,.37-.234,.561-.147,.163-.304,.317-.43,.495-.022,.031,.092,.158,.143,.24,.063-.274,.127-.547,.19-.821Zm-.878,11.182c.306-.315,.794-.592,.869-.954,.084-.409-.141-.928-.351-1.337-.165-.321-.084-.96-1.008-.821,.156,1.059,.309,2.095,.464,3.135,.037,.185,.074,.37,.073,.366,0-.001-.023-.194-.046-.388Zm12.086,20.269c.901,.448,1.802,.897,2.804,1.396-.62-1.677-.624-1.687-2.902-1.331,.594-1.263-.139-2.297-.633-3.345-.11-.233-.579-.296-.883-.438-.113,.409-.449,.95-.3,1.203,.533,.901,1.232,1.704,1.914,2.514Zm15.158-23.755c-1.55,.68-2.397,1.694-2.582,3.26-.183,1.542-.505,3.078-.547,4.623-.059,2.207-.695,4.228-1.555,6.212-.617,1.425-1.279,2.833-1.843,4.279-.288,.737-.689,1.55,.048,2.294,.135,0,.295,.051,.368-.007,3.288-2.613,6.092-5.688,8.632-9.02,.877-1.15,1.062-2.325,.52-3.686-1.033-2.593-1.998-5.213-3.042-7.956Zm-18.502,2.514c.447,.609,.688,1.021,1.01,1.356,.532,.554,1.195,.809,1.949,.498,.836-.345,1.363-.976,1.438-1.894,.113-1.388-.708-2.306-2.461-2.804-.595,.874-1.192,1.751-1.936,2.845Zm-3.37-16.168c2.047,.314,3.4-.485,5.14-1.718-2.302-.413-3.925-.406-5.14,1.718Zm30.893,67.603c-.449-.15-.715-.338-.874-.272-.406,.169-.791,.422-1.125,.711-.083,.071,.064,.408,.105,.622,.433-.091,.881-.14,1.291-.294,.182-.068,.285-.347,.603-.767Zm-20.836-54.229c.136,.031,.273,.063,.41,.094,.08-.535,.16-1.07,.241-1.605-.139-.028-.279-.057-.418-.085-.077,.532-.155,1.064-.232,1.596Zm-11.567,5.795c-.139,.029-.279,.057-.418,.086,.026,.416,.041,.833,.09,1.246,.009,.073,.2,.202,.24,.18,.173-.092,.47-.257,.454-.347-.071-.397-.235-.778-.366-1.165Zm9.594-18.078c.302-.041,.485-.015,.524-.079,.173-.28,.447-.606,.409-.877-.037-.262-.392-.501-.652-.689-.047-.034-.447,.23-.448,.357-.002,.43,.103,.86,.166,1.288Zm-.572,5.743c-.279,.208-.609,.35-.601,.468,.022,.304,.193,.597,.304,.894,.159-.119,.444-.23,.452-.359,.02-.31-.089-.629-.156-1.003Zm-2.936-2.979l.252,.009c.018-.363,.036-.726,.055-1.089-.102-.003-.204-.006-.306-.009v1.089Zm-6.439,2.426l.146-.232-.21-.041,.064,.273Zm2.074,10.573l.126,.3,.116-.301-.242,.002Zm1.743,12.336c-.021-.081-.042-.162-.062-.243-.069,.019-.195,.033-.197,.058-.006,.079,.033,.162,.055,.243l.205-.058Z"/>
  <path d="M76.141,125.381c-1.994-.663-3.723-.263-5.585,.09-.339,1.011-.629,2.019-1.033,2.978-.102,.241-.572,.457-.868,.45-.295-.007-.726-.242-.843-.494-.243-.524-.482-1.141-.434-1.695,.29-3.355,1.061-6.615,2.402-9.703,.895-2.061,2.439-2.493,4.392-1.469,2.263,1.187,3.772,2.896,3.982,5.555,.198,2.499,.445,4.996,.581,7.498,.017,.314-.501,.914-.785,.923-.359,.011-.946-.379-1.057-.72-.331-1.012-.477-2.084-.753-3.411Zm-5.179-2.392c1.898,.211,3.499,.384,4.907-.612,.168-3.557-.007-3.829-3.254-5.091-1.576,1.453-2.148,3.23-1.653,5.703Z"/>
  <path d="M42.243,128.216c-.123,1.195-.201,2.374-.399,3.532-.039,.23-.518,.446-.832,.541-.159,.048-.483-.135-.595-.305-.257-.388-.559-.814-.616-1.255-.277-2.134-.515-4.274-.694-6.418-.139-1.662-.172-3.332-.254-5.041,1.056-.923,1.969-1.87,3.026-2.611,1.672-1.171,3.522-1.419,5.441-.571,1.248,.551,1.778,1.464,1.627,2.87-.418,3.897-1.676,7.237-5.798,8.668-.32,.111-.586,.377-.905,.59Zm-1.416-5.312c.033,.264,.066,.619,.126,.969,.04,.233,.105,.463,.179,.688,.281,.853,1.147,1.192,2.017,.797,2.356-1.069,3.833-3.961,3.306-6.476-.171-.817-1.075-1.345-1.924-1.124-2.2,.574-3.746,2.684-3.705,5.146Z"/>
  <path d="M93.695,115.684c.929,.086,1.747,.281,2.535,.2,.692-.072,1.338-.51,2.031-.681,.568-.14,1.2-.248,1.756-.135,.358,.072,.716,.527,.897,.897,.067,.137-.312,.655-.585,.77-1.318,.557-2.682,1.006-4.004,1.554-.614,.255-.901,.835-.709,1.469,.127,.418,.413,.905,.771,1.103,.376,.209,.933,.192,1.392,.132,1.181-.153,2.348-.423,3.53-.555,.258-.029,.712,.271,.798,.516,.088,.251-.074,.797-.286,.907-.618,.322-1.306,.532-1.986,.711-1.241,.326-2.596,.357-3.565,1.331,1.075,2.647,2.086,3.494,4.351,3.618,.829,.045,1.67-.094,2.496-.027,.259,.021,.625,.408,.687,.685,.063,.281-.112,.702-.322,.936-.221,.246-.592,.431-.925,.491-3.056,.548-6.756-1.283-8.168-4.009-.11-.213-.262-.418-.311-.645-.15-.696-.422-1.417-.355-2.1,.23-2.347-.737-4.702-.03-7.168Z"/>
  <path d="M60.958,53.072c-.573,1.597-1.419,3.005-2.639,4.217-1.778,1.765-3.533,3.56-5.199,5.43-1.175,1.32-2.543,2.433-3.332,4.163-.742,1.628-2.578,2.064-4.283,2.068-.582,.001-1.354-.562-1.711-1.089-.771-1.14-.245-2.278,.392-3.347,.547-.918,1.416-1.554,2.375-1.205,2.244,.817,3.535-.214,4.895-1.813,1.381-1.623,2.935-3.101,4.821-4.241,1.081-.653,1.845-1.84,2.725-2.811,.562-.62,1.043-1.336,2.02-1.297l-.064-.075Z"/>
  <path d="M114.8,112.998c-1.185-.06-1.516-.062-1.844-.095-2.808-.285-4.485,1.858-3.428,4.47,.203,.503,.707,.969,1.189,1.256,.816,.486,1.764,.749,2.585,1.229,.92,.538,1.856,1.113,2.615,1.848,1.538,1.488,1.948,3.2,1.187,4.497-1.054,1.797-2.577,2.781-4.739,2.554-.903-.095-1.238-.315-2.267-1.63,.916-.096,1.721-.106,2.487-.284,.673-.156,1.373-.398,1.933-.788,.856-.597,1.041-1.786,.342-2.531-.719-.766-1.588-1.428-2.487-1.978-1.117-.683-2.343-1.185-3.502-1.803-1.06-.566-1.58-1.508-1.381-2.677,.239-1.403,.474-2.849,1.015-4.15,.833-2.002,2.99-2.887,4.67-2.013,.519,.27,.801,.997,1.628,2.095Z"/>
  <path d="M53.304,122.934c-.226-1.879-.475-3.756-.648-5.639-.022-.241,.309-.665,.557-.74,.266-.081,.767,.051,.918,.265,.33,.466,.659,1.027,.712,1.576,.16,1.648,.291,3.312,.249,4.966-.111,4.379,.609,5.271,4.708,5.036,.923-.053,1.874,.141,2.787,.335,.235,.05,.536,.541,.52,.813-.016,.275-.346,.704-.608,.765-2.235,.515-4.491,.397-6.728,.01-1.163-.202-1.771-1.086-2.247-2.099-.804-1.712-.548-3.488-.221-5.285Z"/>
  <path d="M86.587,115.342c-1.314,.77-2.171,1.753-2.066,3.442,.05,.796-.377,1.609-.472,2.428-.366,3.176,1.201,4.904,4.438,4.948,.354,.005,.769-.144,1.05-.006,.368,.181,.857,.561,.878,.882,.022,.352-.351,.942-.688,1.07-3.639,1.378-7.654-1.107-7.78-4.882-.093-2.773,.52-5.454,1.906-7.886,.253-.443,.915-.907,1.382-.9,.426,.006,.843,.637,1.265,.993l.088-.088Z"/>
  <path d="M61.022,53.147c-.095-.448-.226-.892-.274-1.345-.052-.498,.136-.889,.706-.941,.104-.01,.308,.07,.309,.114,.013,.315,.072,.672-.05,.938-.189,.411-.51,.761-.766,1.148,.01,.011,.074,.086,.074,.086Z"/>
  <path d="M86.498,115.43c.221,.077,.447,.142,.66,.236,.099,.044,.172,.144,.257,.219-.151,.016-.366,.101-.441,.033-.166-.151-.261-.379-.387-.576-.002,0-.09,.088-.09,.088Z"/>
  <path d="M99.18,40.927c1.044,2.743,2.009,5.363,3.042,7.956,.542,1.361,.357,2.535-.52,3.686-2.541,3.331-5.344,6.407-8.632,9.02-.073,.058-.233,.007-.368,.007-.738-.743-.336-1.557-.048-2.294,.564-1.446,1.226-2.853,1.843-4.279,.859-1.985,1.496-4.006,1.555-6.212,.041-1.545,.364-3.081,.547-4.623,.186-1.566,1.032-2.581,2.582-3.26Z" fill="#fff"/>
  <path d="M80.678,43.441c.744-1.093,1.341-1.97,1.936-2.845,1.752,.498,2.574,1.416,2.461,2.804-.075,.918-.602,1.549-1.438,1.894-.754,.311-1.417,.056-1.949-.498-.322-.335-.563-.747-1.01-1.356Z" fill="#fff"/>
  <path d="M77.309,27.273c1.215-2.124,2.838-2.131,5.14-1.718-1.74,1.233-3.093,2.032-5.14,1.718Z" fill="#fff"/>
  <path d="M83.977,64.712c-.636-.84-1.335-1.643-1.869-2.543-.15-.253,.186-.794,.3-1.203,.304,.142,.773,.205,.883,.438,.494,1.048,1.227,2.082,.633,3.345l.053-.036Z" fill="#fff"/>
  <path d="M71.907,44.433c-.153-1.036-.306-2.073-.462-3.132,.925-.139,.843,.501,1.008,.821,.211,.409,.435,.928,.351,1.337-.074,.362-.563,.64-.869,.954l-.029,.019Z" fill="#fff"/>
  <path d="M108.202,94.876c-.318,.42-.421,.699-.603,.767-.41,.153-.858,.202-1.291,.294-.041-.214-.188-.551-.105-.622,.333-.289,.718-.542,1.125-.711,.16-.066,.426,.122,.874,.272Z" fill="#fff"/>
  <path d="M83.924,64.748c2.278-.357,2.282-.347,2.902,1.331-1.002-.499-1.903-.947-2.826-1.381-.022,.015-.076,.051-.076,.051Z" fill="#fff"/>
  <path d="M87.366,40.647c.077-.532,.155-1.064,.232-1.596,.139,.028,.279,.057,.418,.085-.08,.535-.161,1.07-.241,1.605-.137-.031-.273-.063-.41-.094Z" fill="#fff"/>
  <path d="M75.799,46.442c.131,.387,.295,.767,.366,1.165,.016,.09-.281,.256-.454,.347-.041,.022-.232-.107-.24-.18-.049-.413-.063-.83-.09-1.246,.139-.029,.279-.057,.418-.086Z" fill="#fff"/>
  <path d="M85.394,28.364c-.064-.427-.168-.858-.166-1.288,0-.127,.4-.391,.448-.357,.26,.187,.616,.427,.652,.689,.038,.271-.236,.597-.409,.877-.039,.064-.223,.038-.524,.079Z" fill="#fff"/>
  <path d="M84.821,34.107c.067,.374,.176,.692,.156,1.003-.009,.129-.293,.24-.452,.359-.112-.297-.283-.59-.304-.894-.008-.118,.321-.26,.601-.468Z" fill="#fff"/>
  <path d="M81.886,31.128v-1.089c.102,.003,.204,.006,.306,.009-.018,.363-.036,.726-.055,1.089l-.252-.009Z" fill="#fff"/>
  <polygon points="75.447 33.554 75.383 33.281 75.593 33.322 75.447 33.554" fill="#fff"/>
  <path d="M72.904,33.311c.08-.185,.161-.37,.241-.555-.11,.158-.221,.317-.331,.475,0,0,.09,.079,.09,.079Z" fill="#fff"/>
  <path d="M72.814,33.231c-.063,.274-.127,.547-.19,.821-.051-.083-.165-.21-.143-.24,.125-.178,.283-.332,.427-.498-.003-.003-.093-.082-.093-.082Z" fill="#fff"/>
  <polygon points="77.521 44.127 77.762 44.126 77.647 44.427 77.521 44.127" fill="#fff"/>
  <path d="M71.936,44.413c.023,.193,.046,.386,.046,.388,0,.004-.036-.181-.074-.367-.001-.001,.028-.021,.028-.021Z" fill="#fff"/>
  <path d="M79.264,56.463l-.205,.058c-.022-.081-.061-.164-.055-.243,.002-.024,.128-.039,.197-.058,.021,.081,.042,.162,.062,.243Z" fill="#fff"/>
  <path d="M70.962,122.989c-.495-2.474,.077-4.251,1.653-5.703,3.247,1.262,3.422,1.534,3.254,5.091-1.408,.996-3.009,.823-4.907,.612Z" fill="#fff"/>
  <path d="M40.827,122.904c-.042-2.463,1.505-4.572,3.705-5.146,.849-.221,1.753,.307,1.924,1.124,.526,2.514-.951,5.407-3.306,6.476-.87,.395-1.735,.056-2.017-.797-.074-.225-.139-.455-.179-.688-.06-.351-.093-.705-.126-.969Z" fill="#fff"/>
</svg>