<?xml version="1.0" encoding="UTF-8"?>
<svg id="a" data-name="Layer 1" xmlns="http://www.w3.org/2000/svg" width="172" height="174" viewBox="0 0 172 174">
  <path d="M62.271,44.042c.354-1.013,.646-1.636,.787-2.292,.609-2.838,1.833-5.411,3.039-8.037,1.962-4.274,4.664-8.081,7.047-12.085,.969-1.629,2.282-3.062,3.515-4.519,.669-.79,2.022-.593,2.386,.402,.696,1.903,1.394,3.84,1.756,5.823,.56,3.064,.981,6.141,1.967,9.121,.407,1.231,.383,2.601,.59,3.902,1.182,7.445,2.372,14.888,3.578,22.329,.032,.198,.278,.36,.424,.54,.225,.014,.529,.131,.663,.027,2.638-2.046,5.242-4.137,7.886-6.175,1.367-1.053,2.928-1.66,4.688-1.491,1.921,.184,3.803,.417,5.553-.804,.375-.262,1.242-.189,1.679,.071,2.566,1.529,5.12,3.089,7.575,4.787,1.168,.808,2.188,1.874,3.134,2.948,1.604,1.821,3.451,3.32,5.502,4.586,4.427,2.733,7.641,6.497,9.47,11.371,1.433,3.82,2.951,7.578,5.049,11.104,.947,1.592,1.873,3.331,1.574,5.547-.99,.096-1.93,.084-2.813,.302-.802,.198-1.514,.752-2.316,.955-1.036,.262-2.123,.315-3.183,.488-1.206,.197-1.694,.733-1.775,1.883-.008,.12-.047,.25-.014,.358,.881,2.882,.616,5.886,.969,8.821,.486,4.04,1.181,8.055,1.721,12.09,.064,.474-.278,1.003-.523,1.804-.834-.646-1.381-1.07-2.003-1.552-.209,.248-.512,.466-.616,.755-.531,1.483,.727,2.393,1.329,3.574-.451,.498-.938,.886-1.221,1.39-.278,.494-.47,1.106-.467,1.664,.002,.392,.322,.871,.644,1.138,.179,.149,.783,.07,.97-.124,.734-.761,1.56-1.517,2.018-2.441,1.021-2.059,1.547-4.277,1.371-6.611-.043-.576-.103-1.151-.147-1.631,.747-.664,1.232-.354,1.648,.113,.233,.262,.452,.578,.555,.908,1.133,3.645-1.393,10.169-4.614,12.029-1.424,.822-2.962,1.251-4.469,.543-5.412-2.542-11.193-2.226-16.92-2.338-3.112-.061-6.226-.046-9.34-.039-1.557,.004-3.117,.145-4.669,.082-1.297-.053-2.657-.109-3.862-.529-2.286-.796-4.563-1.407-7.168-1.053-.721-2.411-1.106-4.737-.831-7.092,.352-3.006,.15-5.986-.106-8.968-.297-3.468-.57-6.919,.11-10.385,.396-2.017,.054-3.833-2.148-4.735-1.076,.237-1.145,1.153-1.256,1.948-.319,2.284-1.057,4.416-2.072,6.477-.539,1.094-1.128,2.118-2.183,2.789-1.947,1.239-2.473,3.052-2.348,5.264,.221,3.936-.137,7.902,.676,11.811,.166,.8,.158,1.673,.033,2.481-.055,.358-.575,.854-.931,.896-.338,.041-.745-.418-1.104-.68-.082-.06-.133-.216-.132-.327,.031-3.114-1.016-6.131-.73-9.283,.237-2.62,.24-5.262,.316-7.895,.043-1.483-.321-2.795-1.413-3.931-2.355-2.452-4.138-5.26-4.969-8.616-.091-.366-.51-.651-.987-1.229-1.035,1.906-1.134,3.755-1.353,5.435-.548,4.197-2.228,7.856-4.776,11.09-1.847,2.345-2.497,5.156-3.613,7.779-.388,.913-.143,2.118-.099,3.187,.053,1.315,.23,2.625,.291,3.94,.034,.722-.026,1.498-.915,1.732-.62,.164-1.254-.616-1.346-1.766-.171-2.148-.275-4.302-.39-6.455-.032-.591-.005-1.186-.005-1.835-2.089-1.453-3.281-3.519-4.461-5.612-1.705-3.022-3.543-5.971-5.185-9.026-.729-1.356-1.201-2.869-1.645-4.355-.958-3.211-1.824-6.45-2.725-9.678-.567-2.033-.376-4.022,.305-5.999,.309-.896,.677-1.813,.746-2.741,.197-2.622,.384-5.257,.34-7.882-.102-6.078,1.078-11.902,3.194-17.56,2.35-6.283,4.664-12.58,7.156-18.807,.925-2.312,2.293-4.45,3.496-6.647,.354-.647,1.413-.58,1.786,.108,.34,.626,.665,1.283,.852,1.966,.6,2.195,1.212,4.392,1.672,6.619,.491,2.371,1.282,4.618,2.39,6.754,.241,.464,.733,.798,1.396,1.492Zm23.135,45.798c.347,1.17,.442,2.186,.921,2.966,1.074,1.749,1.154,3.627,1.074,5.555-.13,3.111-.316,6.221-.443,9.332-.082,2.018-.413,4.073,1.076,5.844,.327,.389,.342,1.099,.369,1.668,.034,.714-.091,1.434-.108,2.152-.069,3.031,.19,3.479,2.996,4.51,.878,.323,1.855,.419,2.798,.513,1.308,.131,2.637,.083,3.937,.258,1.704,.229,3.298,.015,4.941-.504,6.896-2.178,13.909-3.606,21.211-2.929,.798,.074,1.62-.111,2.344-.169,.928-1.446,.865-2.915,1.023-4.329,.199-1.785,.192-3.616,.599-5.35,.594-2.532,.43-4.981-.156-7.454-.331-1.398-.648-2.8-.994-4.194-1.262-5.075-.92-5.841,3.636-8.295,.914-.492,2.084-.706,2.412-1.888-1.198-4.488-3.34-8.527-5.601-12.439-2.87-4.966-6.038-9.772-9.975-14.02-1.092-1.179-2.153-2.221-3.77-2.567-.847-.181-1.423-.627-1.855-1.492-.877-1.756-2.529-2.452-4.418-2.633-1.983-.19-3.795,.211-5.415,1.442-3.241,2.461-6.509,4.887-9.765,7.328-.863,.647-1.834,1.192-2.567,1.963-2.881,3.029-5.733,6.088-8.499,9.221-1.263,1.431-2.313,3.053-3.438,4.605-1.119,1.545-2.318,3.049-2.895,5.085,.438,.772,.882,1.609,1.377,2.414,1.08,1.758,2.594,2.701,4.729,2.763,1.416,.041,2.824,.397,4.456,.645Zm-31.153,22.064c1.998-3.169,4.318-5.622,5.568-8.745,.705-1.762,1.154-3.632,1.638-5.475,.273-1.038,.328-2.132,.575-3.178,1.906-8.089,1.171-16.179-.101-24.24-.802-5.082-1.599-10.148-1.52-15.313,.02-1.315,.012-2.64-.124-3.945-.211-2.015-.237-4.125-.892-6.002-1.142-3.277-2.363-6.511-3.093-9.917-.191-.891-.458-1.891-1.614-2.236-.203,.276-.555,.539-.59,.839-.267,2.305-1.361,4.322-2.147,6.447-.788,2.13-1.511,4.284-2.269,6.426-.798,2.255-1.531,4.537-2.422,6.754-1.255,3.123-2.192,6.327-2.828,9.628-.271,1.409-.541,2.823-.91,4.209-.836,3.142-1.262,6.327-1.204,9.579,.042,2.392,.102,4.785,.085,7.177-.017,2.444,.465,4.737,1.667,6.887,1.999,3.576,3.183,7.497,4.271,11.392,.83,2.973,2.394,5.45,3.96,7.979,.354,.571,1.035,.939,1.949,1.732Zm24.944-19.695c-1.681-1.082-3.169-2.069-4.688-3.005-.87-.536-1.311-1.257-1.592-2.254-.938-3.335-.656-6.367,1.662-9.111,1.313-1.554,2.458-3.212,2.887-5.307,.154-.753,.776-1.514,1.381-2.05,1.732-1.535,2.912-3.461,4.233-5.315,1.116-1.565,1.659-3.16,1.501-5.021-.233-2.743-.466-5.488-.779-8.222-.136-1.185-.565-2.335-.704-3.52-.921-7.856-2.453-15.606-4.014-23.351-.108-.536-.127-1.239-1.154-1.275-2.458,2.779-4.989,5.605-6.67,9.11-1.502,3.131-3.203,6.166-4.732,9.285-.516,1.054-1.004,2.214-1.108,3.361-.411,4.531-.785,9.073-.931,13.619-.092,2.86,.183,5.738,.414,8.599,.183,2.262,.803,4.512,.771,6.761-.041,2.909,.544,5.709,.916,8.546,.138,1.051,.526,2.08,.88,3.09,.514,1.467,1.136,2.896,1.65,4.362,1.434,4.091,3.592,7.699,6.98,10.772,2.059-2.794,2.69-5.86,3.096-9.074Zm47.423,32.494c.042-2.355-.115-2.795-1.164-2.953-4.292-.648-8.581-.747-12.829,.327-.342,.087-.627,.402-1.3,.855,5.34,.573,10.269,.253,15.293,1.771Zm6.007-45.304c-.555-4.493-2.457-8.479-5.963-11.61-.082-.073-.399,.118-.727,.225,2.239,3.81,4.465,7.597,6.691,11.385Zm3.37,5.993c-.016,.156-.033,.311-.049,.467,.057-.07,.155-.137,.161-.211,.007-.081-.07-.17-.112-.256Z"/>
  <path d="M81.23,146.802c-3.092-.109-5.931-.208-8.919-.313-.414,1.019-.801,1.971-1.242,3.056-.313-.258-.704-.417-.763-.658-.359-1.449-.153-2.908,.552-4.169,1.277-2.283,2.712-4.479,4.116-6.69,.249-.393,.635-.719,1.008-1.01,1.992-1.552,3.856-1.25,5.005,1.041,1.663,3.313,2.994,6.767,3.263,10.527,.025,.351,.02,.748-.121,1.054-.133,.289-.463,.679-.71,.681-.41,.004-1.053-.157-1.189-.443-.399-.839-.597-1.774-.999-3.077Zm-.409-2.851c-.38-1.263-.572-2.171-.928-3.01-.397-.937-.553-2.257-1.849-2.336-1.206-.073-1.785,1.033-2.32,1.924-.63,1.049-1.918,1.829-1.508,3.559,2.026,.392,4.058,.476,6.605-.138Z"/>
  <path d="M103.624,136.732c2.444-.406,4.614-1.056,6.903-.606,1.476,.29,2.244,.901,1.885,1.6-.514,1.002-1.398,.614-2.195,.507-.118-.016-.234-.048-.352-.064-3.53-.488-4.919,.309-3.44,4.633,.777,.15,1.688,.311,2.591,.508,.459,.1,.924,.222,1.349,.415,.47,.214,.759,.641,.54,1.147-.12,.278-.464,.592-.748,.637-.576,.092-1.179,.008-1.772,.004-.592-.005-1.183,0-1.994,0-.135,.674-.409,1.333-.358,1.966,.065,.793,.671,1.262,1.502,1.173,.943-.101,1.87-.351,2.813-.437,.452-.041,.967,.062,1.372,.264,.268,.133,.531,.553,.54,.852,.008,.294-.257,.806-.489,.862-1.61,.388-3.233,.871-4.871,.956-1.875,.097-3.118-1.158-3.249-3.052-.115-1.66-.026-3.334-.027-5.001,0-2.014,0-4.029,0-6.362Z"/>
  <path d="M60.759,146.248c0,1.387,0,2.436,0,3.484,0,.474,.121,.99-.028,1.411-.135,.383-.544,.901-.865,.924-.352,.026-.769-.413-1.1-.713-.154-.14-.229-.428-.242-.655-.199-3.325-.421-6.649-.554-9.977-.093-2.344,1.131-4.046,2.94-5.381,1.377-1.016,2.99-.91,4.21,.322,1.801,1.819,2.457,4.05,2.109,6.557-.216,1.56-1.149,2.594-2.661,3.041-1.135,.335-2.291,.596-3.811,.986Zm4.225-6.106c-.111-.355-.302-1.291-.692-2.134-.471-1.018-1.554-1.198-2.387-.532-1.642,1.313-2.269,3.038-1.875,5.061,.091,.47,.652,1.094,1.106,1.206,1.954,.486,3.888-1.09,3.849-3.601Z"/>
  <path d="M48.412,134.656c-.667,.563-1.225,.957-1.69,1.441-1.385,1.442-1.569,2.878-.492,4.533,.444,.683,1.089,1.249,1.699,1.806,.881,.805,1.847,1.518,2.718,2.333,1.397,1.307,1.7,2.479,.912,4.166-1.645,3.522-3.764,4.633-7.06,4.248-2.369-.277-4.436-1.016-5.691-3.208-.36-.629-.498-1.301,.338-2.056,.544,.524,1.009,1.029,1.533,1.463,1.229,1.018,2.617,1.645,4.251,1.668,1.845,.025,3.493-.994,4.261-2.71,.319-.714,.259-1.448-.253-2.021-.553-.62-1.237-1.122-1.84-1.701-.859-.825-1.809-1.588-2.52-2.528-1.601-2.119-1.555-4.521,.032-6.644,.67-.896,1.578-1.483,2.754-1.397,.284,.021,.548,.307,1.047,.607Z"/>
  <path d="M129.977,137.609c-.374,.542-.82,.196-1.25,.107-1.773-.368-3,.472-3.91,1.867-1.302,1.999-.883,2.929,1.458,3.447,1.047,.232,2.103,.453,3.119,.788,1.582,.522,2.578,1.666,3.107,3.233,.862,2.551-.277,4.907-2.851,5.661-2.663,.78-5.137,.164-7.789-1.282,.54-.424,.853-.87,1.201-.9,.694-.059,1.407,.111,2.112,.185,.945,.099,1.896,.312,2.835,.269,2.009-.093,3.054-2.322,1.816-3.92-.485-.626-1.228-1.155-1.965-1.457-.981-.402-2.07-.544-3.114-.787-.463-.108-.958-.123-1.392-.297-1.42-.569-2.069-2.177-1.386-3.55,.368-.74,.936-1.377,1.381-2.081,2.361-3.733,3.211-2.923,6.628-1.283Z"/>
  <path d="M96.482,148.681c.2,.723-.226,1.129-.829,1.305-4.368,1.28-8.848-1.589-9.511-6.018-.254-1.694-.147-3.347,.489-4.912,.299-.737,.809-1.486,1.423-1.981,1.998-1.61,3.058-1.491,5.8,.568-1.098-.056-1.962-.217-2.795-.12-2.03,.237-2.698,1.019-2.733,3.021-.012,.712,.076,1.426,.098,2.139,.091,2.954,1.357,5.074,5.379,5.36,.817,.058,1.625,.247,2.433,.394,.089,.016,.156,.152,.245,.243Z"/>
  <path d="M51.195,134.439c-.041,.092-.057,.21-.121,.248-.055,.033-.165-.025-.25-.042,.061-.129,.121-.257,.182-.386,.064,.061,.128,.122,.189,.18Z"/>
  <path d="M85.406,89.84c-1.633-.248-3.04-.604-4.456-.645-2.134-.063-3.649-1.006-4.729-2.763-.495-.806-.939-1.643-1.377-2.414,.577-2.037,1.776-3.541,2.895-5.085,1.124-1.552,2.174-3.174,3.438-4.605,2.766-3.133,5.618-6.192,8.499-9.221,.733-.771,1.704-1.316,2.567-1.963,3.256-2.441,6.524-4.867,9.765-7.328,1.621-1.231,3.433-1.632,5.415-1.442,1.889,.181,3.54,.877,4.418,2.633,.432,.865,1.008,1.31,1.855,1.492,1.617,.346,2.677,1.388,3.77,2.567,3.936,4.247,7.105,9.054,9.975,14.02,2.261,3.912,4.402,7.951,5.601,12.439-.328,1.182-1.498,1.396-2.412,1.888-4.556,2.454-4.899,3.22-3.636,8.295,.347,1.394,.663,2.796,.994,4.194,.586,2.473,.75,4.921,.156,7.454-.407,1.735-.4,3.565-.599,5.35-.158,1.415-.095,2.884-1.023,4.329-.724,.058-1.546,.243-2.344,.169-7.302-.678-14.315,.75-21.211,2.929-1.643,.519-3.237,.734-4.941,.504-1.3-.175-2.629-.127-3.937-.258-.942-.095-1.92-.191-2.798-.513-2.806-1.031-3.066-1.479-2.996-4.51,.016-.718,.142-1.438,.108-2.152-.027-.568-.041-1.279-.369-1.668-1.489-1.771-1.158-3.826-1.076-5.844,.126-3.112,.313-6.221,.443-9.332,.081-1.928,0-3.805-1.074-5.555-.479-.78-.574-1.796-.921-2.966Zm21.441,23.099c1.209,.855,2.217,1.467,3.106,2.22,1.279,1.084,2.695,1.511,4.331,1.241,.827-.137,1.657-.271,2.472-.465,4.483-1.068,5.956-2.814,4.803-7.417-.646-2.578-.83-5.193-.303-7.838,.162-.814,.159-1.669,.155-2.506-.005-.908-.446-1.643-1.26-2.03-3.477-1.653-7.114-2.085-10.83-1.048-1.952,.545-2.441,1.31-2.461,3.444-.045,4.779-.014,9.559-.014,14.397Z" fill="#fff"/>
  <path d="M54.253,111.905c-.913-.794-1.595-1.161-1.949-1.732-1.566-2.529-3.13-5.006-3.96-7.979-1.088-3.895-2.272-7.816-4.271-11.392-1.202-2.151-1.684-4.443-1.667-6.887,.017-2.392-.043-4.785-.085-7.177-.058-3.252,.368-6.437,1.204-9.579,.369-1.386,.638-2.8,.91-4.209,.636-3.301,1.573-6.504,2.828-9.628,.891-2.218,1.624-4.499,2.422-6.754,.758-2.141,1.481-4.295,2.269-6.426,.786-2.125,1.879-4.142,2.147-6.447,.035-.3,.387-.562,.59-.839,1.156,.344,1.423,1.344,1.614,2.236,.73,3.406,1.951,6.641,3.093,9.917,.654,1.878,.681,3.987,.892,6.002,.136,1.306,.144,2.63,.124,3.945-.078,5.165,.719,10.23,1.52,15.313,1.272,8.061,2.007,16.15,.101,24.24-.247,1.046-.302,2.14-.575,3.178-.484,1.842-.933,3.713-1.638,5.475-1.25,3.123-3.57,5.576-5.568,8.745Z" fill="#fff"/>
  <path d="M79.197,92.21c-.406,3.215-1.037,6.28-3.096,9.074-3.388-3.073-5.546-6.681-6.98-10.772-.514-1.467-1.136-2.895-1.65-4.362-.354-1.011-.742-2.039-.88-3.09-.372-2.838-.957-5.637-.916-8.546,.032-2.249-.589-4.499-.771-6.761-.231-2.86-.506-5.739-.414-8.599,.146-4.546,.52-9.087,.931-13.619,.104-1.148,.592-2.308,1.108-3.361,1.529-3.119,3.23-6.154,4.732-9.285,1.681-3.505,4.212-6.331,6.67-9.11,1.027,.036,1.046,.739,1.154,1.275,1.562,7.745,3.093,15.495,4.014,23.351,.139,1.184,.568,2.335,.704,3.52,.314,2.735,.546,5.479,.779,8.222,.158,1.861-.386,3.456-1.501,5.021-1.321,1.854-2.501,3.781-4.233,5.315-.605,.536-1.227,1.297-1.381,2.05-.429,2.095-1.574,3.753-2.887,5.307-2.318,2.744-2.6,5.776-1.662,9.111,.28,.997,.721,1.718,1.592,2.254,1.52,.935,3.007,1.923,4.688,3.005Z" fill="#fff"/>
  <path d="M126.62,124.704c-5.024-1.517-9.953-1.198-15.293-1.771,.673-.453,.958-.768,1.3-.855,4.248-1.074,8.537-.975,12.829-.327,1.049,.158,1.206,.598,1.164,2.953Z" fill="#fff"/>
  <path d="M132.627,79.4c-2.226-3.787-4.452-7.575-6.691-11.385,.328-.107,.645-.298,.727-.225,3.507,3.131,5.409,7.117,5.963,11.61Z" fill="#fff"/>
  <path d="M135.998,85.394c.041,.086,.118,.175,.111,.256-.007,.075-.104,.141-.161,.211,.016-.156,.033-.311,.05-.467Z" fill="#fff"/>
  <path d="M80.821,143.951c-2.547,.614-4.579,.53-6.605,.138-.41-1.731,.878-2.51,1.508-3.559,.535-.891,1.114-1.997,2.32-1.924,1.296,.079,1.452,1.399,1.849,2.336,.356,.839,.548,1.747,.928,3.01Z" fill="#fff"/>
  <path d="M64.984,140.142c.039,2.511-1.895,4.087-3.849,3.601-.454-.113-1.014-.736-1.106-1.206-.393-2.024,.233-3.749,1.875-5.061,.833-.666,1.917-.486,2.387,.532,.39,.844,.581,1.779,.692,2.134Z" fill="#fff"/>
  <path d="M106.848,112.94c0-4.838-.031-9.618,.014-14.397,.02-2.134,.509-2.9,2.461-3.444,3.716-1.037,7.353-.605,10.83,1.048,.814,.387,1.255,1.121,1.26,2.03,.004,.836,.007,1.692-.155,2.506-.527,2.645-.343,5.259,.303,7.838,1.153,4.603-.32,6.349-4.803,7.417-.815,.194-1.645,.328-2.472,.465-1.636,.27-3.052-.157-4.331-1.241-.889-.753-1.897-1.366-3.106-2.22Zm3.615-7.322c-.878,2.01-.863,3.592-.613,5.067,.452,2.671,2.647,3.974,5.328,3.398,.701-.151,1.394-.349,2.077-.569,1.551-.498,2.348-1.599,2.375-3.21,.012-.711-.092-1.43-.197-2.137-.419-2.839-.997-5.664-.425-8.559,.21-1.062-.242-1.911-1.236-2.339-2.262-.973-4.639-1.169-7.023-.655-.615,.133-1.475,.738-1.595,1.269-.417,1.834-.623,3.745,.896,5.38,.883-.205,1.672-.484,2.478-.553,1.186-.1,2.365,.717,2.828,1.833,.415,1,.08,1.872-.543,2.666-.537,.685-1.561,.917-2.243,.406-.646-.484-1.185-1.11-2.109-1.998Z"/>
  <path d="M110.463,105.617c.924,.888,1.463,1.515,2.109,1.998,.682,.511,1.706,.279,2.243-.406,.622-.794,.957-1.666,.543-2.666-.463-1.116-1.642-1.933-2.828-1.833-.807,.068-1.595,.348-2.478,.553-1.519-1.636-1.313-3.546-.896-5.38,.121-.531,.98-1.136,1.595-1.269,2.384-.513,4.761-.318,7.023,.655,.994,.428,1.446,1.276,1.236,2.339-.572,2.895,.006,5.719,.425,8.559,.104,.707,.209,1.426,.197,2.137-.027,1.611-.824,2.712-2.375,3.21-.683,.219-1.376,.418-2.077,.569-2.681,.576-4.877-.726-5.328-3.398-.249-1.475-.265-3.058,.613-5.067Z" fill="#fff"/>
</svg>